# xmcd
#
# Track frame offsets:
#	150
#	50103
#	146496
#	168007
#	197228
#	254383
#	270070
#	300570
#
# Disc length: 4363 seconds
#
# Revision: 1
# Processed by: cddbd v1.5.2PL0 Copyright (c) Steve Scherf et al.
# Submitted via: audiograbber 1.83.01
#
DISCID=67110908
DTITLE=Grateful Dead - 79-11-02 Nassau Veterans Memorial Coliseum, Uniondale NY
DYEAR=1900
DGENRE=
TTITLE0=Mississippi Half-Step
TTITLE1=Franklin's Tower
TTITLE2=El Paso
TTITLE3=Mexicali Blues
TTITLE4=Tennessee Jed
TTITLE5=Lazy Lightning
TTITLE6=Supplication
TTITLE7=Deal
EXTD=
EXTT0=
EXTT1=
EXTT2=
EXTT3=
EXTT4=
EXTT5=
EXTT6=
EXTT7=
PLAYORDER=
